inDegrees=no
num_controls=7
num_derivatives=13
num_iterations=152
num_multipliers=7
num_parameters=0
num_slacks=7
num_states=26
objective=6.258474
objective_accelerations=0.726356
objective_balance=0.062252
objective_effort=0.595724
objective_height=4.803938
objective_ligament=0.070205
solver_duration=1669.962265
status=Solve_Succeeded
success=true
DataType=double
version=3
OpenSimVersion=4.4-2022-07-23-0e9fedc
endheader
time	/jointset/ground_pelvis/pelvis_tilt/value	/jointset/ground_pelvis/pelvis_tx/value	/jointset/ground_pelvis/pelvis_ty/value	/jointset/hip_l/hip_flexion_l/value	/jointset/hip_l/hip_adduction_l/value	/jointset/hip_l/hip_rotation_l/value	/jointset/back/lumbar_extension/value	/jointset/patellofemoral_l/patellar_flexion_l/value	/jointset/knee_l/knee_flexion_l/value	/jointset/knee_l/knee_adduction_l/value	/jointset/knee_l/knee_rotation_l/value	/jointset/ankle_l/ankle_angle_l/value	/jointset/subtalar_l/subtalar_angle_l/value	/jointset/ground_pelvis/pelvis_tilt/speed	/jointset/ground_pelvis/pelvis_tx/speed	/jointset/ground_pelvis/pelvis_ty/speed	/jointset/hip_l/hip_flexion_l/speed	/jointset/hip_l/hip_adduction_l/speed	/jointset/hip_l/hip_rotation_l/speed	/jointset/back/lumbar_extension/speed	/jointset/patellofemoral_l/patellar_flexion_l/speed	/jointset/knee_l/knee_flexion_l/speed	/jointset/knee_l/knee_adduction_l/speed	/jointset/knee_l/knee_rotation_l/speed	/jointset/ankle_l/ankle_angle_l/speed	/jointset/subtalar_l/subtalar_angle_l/speed	/forceset/tau_hip_flexion_l	/forceset/tau_hip_adduction_l	/forceset/tau_hip_rotation_l	/forceset/tau_knee_flexion_l	/forceset/tau_ankle_angle_l	/forceset/tau_subtalar_angle_l	/forceset/tau_lumbar_extension	lambda_cid13_p0	lambda_cid13_p1	lambda_cid13_p2	lambda_cid13_p3	lambda_cid13_p4	lambda_cid13_p5	lambda_cid14_p0	/jointset/ground_pelvis/pelvis_tilt/accel	/jointset/ground_pelvis/pelvis_tx/accel	/jointset/ground_pelvis/pelvis_ty/accel	/jointset/hip_l/hip_flexion_l/accel	/jointset/hip_l/hip_adduction_l/accel	/jointset/hip_l/hip_rotation_l/accel	/jointset/back/lumbar_extension/accel	/jointset/patellofemoral_l/patellar_flexion_l/accel	/jointset/knee_l/knee_flexion_l/accel	/jointset/knee_l/knee_adduction_l/accel	/jointset/knee_l/knee_rotation_l/accel	/jointset/ankle_l/ankle_angle_l/accel	/jointset/subtalar_l/subtalar_angle_l/accel	gamma_cid13_p0	gamma_cid13_p1	gamma_cid13_p2	gamma_cid13_p3	gamma_cid13_p4	gamma_cid13_p5	gamma_cid14_p0
1.5	-0.06245264867250318	-0.03945463463012003	0.8255298526118674	0.8428391667476857	-0.3173464408681118	-0.119740609638267	-0.8128502977711646	0.8488114920462567	0.8488114920462105	-0.07778063175625391	-0.174495597431739	0.1319424021336666	0.02186670284999358	0.5000852693986441	0.2702185755709403	0.5369998443991009	-2.420189786884551	0.06073857562444453	-0.6465295088652846	0.8183518350812919	-2.178983644081853	-2.178983644081872	-0.217668518836822	-0.0006313220495335885	-0.3927598499582782	-0.06691167831224255	-0.2445920568292539	0.02604405775344986	-0.007782407229168955	-0.2207502687323066	0.08952088002422585	0.04064809873380137	0.3065360678527557	-12.95199529772999	-16.76628749149742	3.795696095994324	-12.50402640075705	-663.7943386878071	-68.16092731939396	-12.61283069424745	0.2275025460921813	0.8655074005863489	-0.7310836826486692	-0.9785111911245016	0.4999560873172894	-0.5088028782520295	2.216138227649907	-1.107320174982086	-1.107320174982112	-0.1902313040451144	0.02630575920690918	-0.3672239571112835	0.4538974571994621	5.283981537007898e-07	3.452077733695338e-07	-2.884562407251562e-06	-2.559402703765691e-07	5.949739328752024e-07	1.216879594875358e-07	4.164835253339297e-07
1.51	-0.05744070824628687	-0.03670930248681668	0.8308622728372637	0.818590147598946	-0.3167153491739101	-0.1262286574127633	-0.804557137937611	0.8269686674665746	0.8269686674661947	-0.0799707761936274	-0.1745005962115281	0.1279969043592122	0.02121885066712433	0.5022298442483458	0.2788299940465053	0.529375999842177	-2.429326020790278	0.06548760032007575	-0.6509990977566321	0.8402088411641824	-2.189289064366275	-2.189289064366286	-0.2203542671186986	-0.0003380842526982362	-0.3962382946582365	-0.06262114731897746	-0.2361094569811938	0.02554873517554622	-0.007522977529044564	-0.2166928968102962	0.0893496153809011	0.04004179854361544	0.2987216506941963	-12.71083040280257	-16.64103884584312	3.885200445111463	-12.39463832810807	-658.3347311925844	-68.14292512224627	-13.4548166876181	0.197042401764436	0.8562358407456183	-0.794137663358141	-0.8379076096662074	0.4638563489062828	-0.4034660560779452	2.159788229508473	-0.9484068824751181	-0.9484068824739403	-0.3068056080480849	0.03484315077977554	-0.3229211578440534	0.4225012365725173	5.334707841035893e-07	5.01362505262575e-07	-2.799181042312182e-06	-2.334534905326901e-07	6.223961127197111e-07	2.246884622987262e-07	4.222890973757546e-07
1.52	-0.05240950058211812	-0.03387840080481796	0.8361152340528629	0.7942584204873023	-0.3160364710951117	-0.1327588869082542	-0.796047546757055	0.8050315378982151	0.8050315378982045	-0.0821875899168734	-0.1745018605418465	0.1240196688515056	0.0206150778574246	0.5039387169922881	0.287332483310017	0.5211080424395182	-2.436731379470793	0.07029585254428743	-0.6549658531080947	0.8616381044831214	-2.19784464174282	-2.197844641742823	-0.2230023761120998	0.0001155679785119103	-0.3991073966144266	-0.05809580367838363	-0.2276268571327771	0.02505341259841092	-0.007263547824455313	-0.2126355248882501	0.08917835073778191	0.03943549835431606	0.2909072335357354	-12.46995028529394	-16.51654298531505	3.975744441125925	-12.33359600203497	-652.9153119344791	-68.20584213789756	-14.28230840795073	0.1403621249404887	0.8437215581757138	-0.8599062517956538	-0.6323361460821743	0.5118015930331348	-0.4082361702749838	2.130589674859742	-0.7573515934069195	-0.7573515934069135	-0.1827034463498241	0.05838864608177551	-0.2453554083576313	0.5008599866652725	5.357359549307943e-07	6.465548801144187e-07	-2.709302662656626e-06	-2.123545894287431e-07	6.485393888629847e-07	3.216087833869931e-07	4.258224537233995e-07
1.53	-0.04736340612353439	-0.03096309856513551	0.8412824073696963	0.7698611847423767	-0.3153092451519127	-0.1393267982951411	-0.7873259133945405	0.7830174293519833	0.7830174293515612	-0.08443035113715723	-0.1744980296683545	0.1200167257291713	0.02005768567252819	0.5052008012975978	0.29570174324696	0.5122279787424019	-2.442422655902797	0.07515654804312503	-0.6585415311516629	0.882611097588113	-2.204688684449535	-2.204688684449517	-0.2255326410767056	0.0006792820180921356	-0.4013810247449552	-0.05334680667706634	-0.2192213869973693	0.02435713210950649	-0.006951601913688184	-0.2086763119162114	0.08883155533108324	0.03872079857397159	0.283134358419553	-12.31366325318778	-16.32528599536713	4.050077710023706	-12.11110180390637	-647.8102106985333	-68.21475360517731	-15.09406652365727	0.1072748873130133	0.8295585598573464	-0.916715437909489	-0.4934916798901453	0.474529847631043	-0.3205659488440045	2.069033564212682	-0.6047586531794696	-0.60475865317628	-0.2855420639952126	0.05915997485817675	-0.2033028754274905	0.4674566570673668	5.350181999589302e-07	7.800997506099901e-07	-2.614646204865132e-06	-1.927303094859737e-07	6.733238298236956e-07	4.12068911394654e-07	4.269415808959782e-07
